<?xml version="1.0" standalone="no"?><!DOCTYPE svg PUBLIC "-//W3C//DTD SVG 1.1//EN" "http://www.w3.org/Graphics/SVG/1.1/DTD/svg11.dtd"><svg t="1589286569401" class="icon" viewBox="0 0 1024 1024" version="1.1" xmlns="http://www.w3.org/2000/svg" p-id="5073" xmlns:xlink="http://www.w3.org/1999/xlink" width="50" height="50"><defs><style type="text/css"></style></defs><path d="M895.71020547 439.09160453v145.81679094c0 10.97639001-8.89477246 19.88410785-19.88410785 19.88410784h-269.53581353v269.53581352c0 10.98933538-8.90771785 19.88410785-19.88410786 19.88410786h-145.8167909c-10.97639001 0-19.88410785-8.89477246-19.88410786-19.88410786V604.79250331h-269.53581352c-10.98933538 0-19.88410785-8.90771785-19.88410786-19.88410784V439.09160453c0-10.97639001 8.89477246-19.88410785 19.88410786-19.88410784h269.53581352V149.67168317c0-10.98933538 8.90771785-19.88410785 19.88410786-19.88410786h145.8167909c10.97639001 0 19.88410785 8.89477246 19.88410786 19.88410786v269.53581352h269.53581353c10.98933538 0 19.88410785 8.90771785 19.88410785 19.88410784z" fill="#799AA5" p-id="5074"></path></svg>