<?xml version="1.0" standalone="no"?><!DOCTYPE svg PUBLIC "-//W3C//DTD SVG 1.1//EN" "http://www.w3.org/Graphics/SVG/1.1/DTD/svg11.dtd"><svg t="1588516412263" class="icon" viewBox="0 0 1024 1024" version="1.1" xmlns="http://www.w3.org/2000/svg" p-id="2607" xmlns:xlink="http://www.w3.org/1999/xlink" width="50" height="50"><defs><style type="text/css"></style></defs><path d="M827.076923 374.153846H728.615385v-78.769231c0-10.830769-8.861538-19.692308-19.692308-19.692307H334.769231c-10.830769 0-19.692308 8.861538-19.692308 19.692307v374.153847c0 10.830769 8.861538 19.692308 19.692308 19.692307h78.769231v98.461539c0 10.830769 8.861538 19.692308 19.692307 19.692307h393.846154c10.830769 0 19.692308-8.861538 19.692308-19.692307V393.846154c0-10.830769-8.861538-19.692308-19.692308-19.692308z m-413.538461 19.692308v265.846154h-68.923077V305.230769h354.461538v68.923077H433.230769c-10.830769 0-19.692308 8.861538-19.692307 19.692308z m334.76923 216.615384H649.846154v98.461539h-39.384616V610.461538H512v-39.384615h98.461538V472.615385h39.384616v98.461538h98.461538v39.384615z" p-id="2608" fill="#85A5CC" data-spm-anchor-id="a313x.7781069.0.i3" class="selected"></path><path d="M39.384615 521.846154m-39.384615 0a39.384615 39.384615 0 1 0 78.769231 0 39.384615 39.384615 0 1 0-78.769231 0Z" p-id="2609" fill="#85A5CC"></path><path d="M915.692308 236.307692m-29.538462 0a29.538462 29.538462 0 1 0 59.076923 0 29.538462 29.538462 0 1 0-59.076923 0Z" p-id="2610" fill="#85A5CC"></path><path d="M187.076923 748.307692m-19.692308 0a19.692308 19.692308 0 1 0 39.384616 0 19.692308 19.692308 0 1 0-39.384616 0Z" p-id="2611" fill="#85A5CC"></path><path d="M1004.307692 807.384615m-19.692307 0a19.692308 19.692308 0 1 0 39.384615 0 19.692308 19.692308 0 1 0-39.384615 0Z" p-id="2612" fill="#85A5CC"></path></svg>