<?xml version="1.0" standalone="no"?><!DOCTYPE svg PUBLIC "-//W3C//DTD SVG 1.1//EN" "http://www.w3.org/Graphics/SVG/1.1/DTD/svg11.dtd"><svg t="1588173225071" class="icon" viewBox="0 0 1181 1024" version="1.1" xmlns="http://www.w3.org/2000/svg" p-id="3821" xmlns:xlink="http://www.w3.org/1999/xlink" width="57.666015625" height="50"><defs><style type="text/css"></style></defs><path d="M472.571763 582.917269h677.352859v157.523921H614.343291v-141.771529c0-6.820786-141.771529 4.977756-141.771528-1.354705V582.917269z" fill="#799AA5" p-id="3822"></path><path d="M330.800234 945.222287h220.533489v47.257176H330.800234z" fill="#799AA5" p-id="3823"></path><path d="M330.800234 645.926838h220.533489v31.504784H330.800234z" fill="#799AA5" p-id="3824"></path><path d="M63.009568 803.450758h252.038274v78.761961H63.009568z" fill="#799AA5" p-id="3825"></path><path d="M1129.446513 753.295142H855.543919l35.348368 105.667046a15.295573 15.295573 0 0 1 0.456819 7.30911h75.154663a15.752392 15.752392 0 1 1 0 31.394517H583.830908v79.234533a47.257176 47.257176 0 0 1-47.257176 47.099652H327.949051a47.257176 47.257176 0 0 1-47.257176-47.099652v-61.182291H51.982894A51.982894 51.982894 0 0 1 0 863.924192V358.603206a51.982894 51.982894 0 0 1 51.982894-51.793865h156.279482V51.793865a51.982894 51.982894 0 0 1 51.982894-51.793865H1129.446513A51.982894 51.982894 0 0 1 1181.429407 51.793865v649.707412a51.982894 51.982894 0 0 1-51.982894 51.793865z m-545.615605 112.976156H860.080608l-35.316863-105.667046a15.264068 15.264068 0 0 1-0.456819-7.30911H583.830908v112.976156z m-271.634249 110.644802a15.752392 15.752392 0 0 0 15.752392 15.752392h208.624681a15.752392 15.752392 0 0 0 15.752392-15.752392v-43.145802H312.196659v43.145802z m0-74.540319h240.129465v-203.205858H312.196659v203.205858z m15.752392-306.809341h12.082085a14.681229 14.681229 0 0 1-0.472572-2.347106V404.537181a2.929945 2.929945 0 0 0-2.362859-3.150478H83.660954a2.914193 2.914193 0 0 0-2.347106 3.150478v377.348553a2.914193 2.914193 0 0 0 2.347106 3.150478h197.030921v-142.401624a47.257176 47.257176 0 0 1 47.257176-47.115405z m0 31.394517a15.752392 15.752392 0 0 0-15.752392 15.752393v25.09356h240.129465v-25.15657a15.752392 15.752392 0 0 0-15.752392-15.752392H327.949051zM51.982894 338.203858A20.47811 20.47811 0 0 0 31.504784 358.603206v505.336738a20.47811 20.47811 0 0 0 20.47811 20.383595h228.724733v-67.861305H83.660954a34.261453 34.261453 0 0 1-33.85189-34.560748V404.537181a34.261453 34.261453 0 0 1 33.85189-34.5765h253.518999a34.261453 34.261453 0 0 1 33.867643 34.5765v188.682153a14.854506 14.854506 0 0 1-0.472572 2.347106h27.834477V358.603206a20.47811 20.47811 0 0 0-20.47811-20.399348H51.982894zM1149.924622 51.793865a20.47811 20.47811 0 0 0-20.478109-20.47811H260.229517a20.47811 20.47811 0 0 0-20.478109 20.47811v255.015476h138.179983a51.982894 51.982894 0 0 1 51.982894 51.793865v164.770021h717.663231a14.964772 14.964772 0 0 1 2.347106 0.472572V51.793865z m0 502.501308a14.964772 14.964772 0 0 1-2.347106 0.472572H429.914285V595.519183h106.675199a47.257176 47.257176 0 0 1 47.257176 47.099652v79.234532H1129.446513a20.47811 20.47811 0 0 0 20.478109-20.35209v-147.206104z m-455.086607 111.101621a36.08873 36.08873 0 1 1 36.230502-36.104483 36.230502 36.230502 0 0 1-36.230502 36.104483zM196.904901 830.229825h36.230502a15.752392 15.752392 0 1 1 0 31.394517h-36.230502a15.752392 15.752392 0 1 1 0-31.394517z m248.887795 148.655324H409.562194a15.752392 15.752392 0 1 1 0-31.394517h36.230502a15.752392 15.752392 0 1 1 0 31.394517z" fill="#799AA5" p-id="3826"></path></svg>