<?xml version="1.0" standalone="no"?><!DOCTYPE svg PUBLIC "-//W3C//DTD SVG 1.1//EN" "http://www.w3.org/Graphics/SVG/1.1/DTD/svg11.dtd"><svg t="1588174576262" class="icon" viewBox="0 0 1024 1024" version="1.1" xmlns="http://www.w3.org/2000/svg" p-id="7669" xmlns:xlink="http://www.w3.org/1999/xlink" width="50" height="50"><defs><style type="text/css"></style></defs><path d="M512 512m-488.727273 0a488.727273 488.727273 0 1 0 977.454546 0 488.727273 488.727273 0 1 0-977.454546 0Z" fill="#2B4E69" p-id="7670" data-spm-anchor-id="a313x.7781069.0.i58" class="selected"></path><path d="M509.672727 484.072727l74.472728 181.527273c4.654545 9.309091 16.290909 13.963636 27.927272 9.309091l193.163637-79.127273c16.290909-6.981818 18.618182-30.254545 0-37.236363l-267.636364-100.072728c-18.618182-9.309091-34.909091 9.309091-27.927273 25.6zM221.090909 311.854545l193.163636-79.127272c11.636364-4.654545 23.272727 0 27.927273 9.309091l74.472727 181.527272c6.981818 16.290909-11.636364 32.581818-27.927272 25.6L218.763636 349.090909c-16.290909-6.981818-16.290909-30.254545 2.327273-37.236364zM556.218182 451.490909l193.163636-79.127273c11.636364-4.654545 16.290909-16.290909 11.636364-25.6L686.545455 162.909091c-6.981818-16.290909-30.254545-16.290909-39.563637 0l-118.690909 260.654545c-6.981818 18.618182 9.309091 34.909091 27.927273 27.927273zM337.454545 742.4l-74.472727-181.527273c-4.654545-9.309091 2.327273-20.945455 11.636364-25.6l193.163636-79.127272c16.290909-6.981818 34.909091 9.309091 25.6 25.6l-118.690909 260.654545c-4.654545 16.290909-30.254545 16.290909-37.236364 0zM521.309091 884.363636H512c-13.963636 0-23.272727-9.309091-23.272727-23.272727V593.454545c0-13.963636 9.309091-23.272727 23.272727-23.272727h9.309091c13.963636 0 23.272727 9.309091 23.272727 23.272727V861.090909c0 13.963636-11.636364 23.272727-23.272727 23.272727z" fill="#FFFFFF" p-id="7671"></path></svg>