<?xml version="1.0" standalone="no"?><!DOCTYPE svg PUBLIC "-//W3C//DTD SVG 1.1//EN" "http://www.w3.org/Graphics/SVG/1.1/DTD/svg11.dtd"><svg t="1588174190376" class="icon" viewBox="0 0 1024 1024" version="1.1" xmlns="http://www.w3.org/2000/svg" p-id="5324" xmlns:xlink="http://www.w3.org/1999/xlink" width="50" height="50"><defs><style type="text/css"></style></defs><path d="M122.432 363.584C54.848 363.584 0 418.368 0 486.016s54.848 122.432 122.432 122.432S244.864 553.6 244.864 486.016 190.08 363.584 122.432 363.584zM512 363.584c-67.648 0-122.432 54.848-122.432 122.432S444.352 608.448 512 608.448 634.368 553.6 634.368 486.016 579.648 363.584 512 363.584zM901.568 363.584c-67.648 0-122.432 54.848-122.432 122.432s54.848 122.432 122.432 122.432S1024 553.6 1024 486.016 969.152 363.584 901.568 363.584z" p-id="5325" fill="#152737"></path></svg>