<?xml version="1.0" standalone="no"?><!DOCTYPE svg PUBLIC "-//W3C//DTD SVG 1.1//EN" "http://www.w3.org/Graphics/SVG/1.1/DTD/svg11.dtd"><svg t="1588174089414" class="icon" viewBox="0 0 1511 1024" version="1.1" xmlns="http://www.w3.org/2000/svg" p-id="4623" xmlns:xlink="http://www.w3.org/1999/xlink" width="73.779296875" height="50"><defs><style type="text/css"></style></defs><path d="M1154.048 0c8.97219 0 16.237714 14.774857 16.237714 33.01181v957.97638c0 18.236952-7.314286 33.01181-16.237714 33.01181h-65.048381c-8.97219 0-16.237714-14.774857-16.237714-33.01181V33.01181c0-18.236952 7.314286-33.01181 16.237714-33.01181h65.048381z m-731.428571 0C431.542857 0 438.857143 14.774857 438.857143 33.01181v957.97638c0 18.236952-7.314286 33.01181-16.237714 33.01181H357.571048c-4.291048 0-8.43581-3.462095-11.459048-9.654857a54.613333 54.613333 0 0 1-4.778667-23.405714V33.060571c0-8.777143 1.706667-17.16419 4.778667-23.356952C349.135238 3.462095 353.28 0 357.571048 0h65.048381z m926.47619 195.047619c4.291048 0 8.43581 3.31581 11.459048 9.264762 3.072 5.851429 4.778667 13.897143 4.778666 22.28419v473.283048c0 8.387048-1.706667 16.384-4.778666 22.284191-3.023238 5.948952-7.168 9.264762-11.459048 9.264761h-65.048381c-4.291048 0-8.43581-3.31581-11.459048-9.264761a50.176 50.176 0 0 1-4.778666-22.284191V226.596571c0-8.387048 1.706667-16.384 4.778666-22.28419 3.023238-5.948952 7.168-9.264762 11.459048-9.264762h65.048381z m-1121.523809 0c4.291048 0 8.43581 3.31581 11.459047 9.264762 3.072 5.851429 4.778667 13.897143 4.778667 22.28419v473.283048c0 8.387048-1.706667 16.384-4.778667 22.284191-3.023238 5.948952-7.168 9.264762-11.459047 9.264761H162.523429c-4.291048 0-8.43581-3.31581-11.459048-9.264761A50.176 50.176 0 0 1 146.285714 699.879619V226.596571c0-8.387048 1.706667-16.384 4.778667-22.28419 3.023238-5.948952 7.168-9.264762 11.459048-9.264762h65.048381z m1251.523047 195.047619c17.993143 0 32.52419 12.483048 32.524191 27.843048v139.361524c0 15.36-14.531048 27.843048-32.524191 27.843047h-32.475428c-17.993143 0-32.52419-12.483048-32.524191-27.843047V417.889524c0-7.363048 3.413333-14.433524 9.508572-19.69981A35.449905 35.449905 0 0 1 1446.619429 390.095238h32.475428z m-1414.095238 0c17.993143 0 32.52419 12.483048 32.524191 27.843048v139.361524c0 15.36-14.531048 27.843048-32.524191 27.843047H32.52419C14.531048 585.142857 0 572.65981 0 557.29981V417.889524c0-7.363048 3.413333-14.433524 9.508571-19.69981A35.449905 35.449905 0 0 1 32.52419 390.095238h32.475429zM975.238095 438.857143v195.047619h-438.857143V438.857143h438.857143z" p-id="4624" fill="#152737"></path></svg>