<?xml version="1.0" standalone="no"?><!DOCTYPE svg PUBLIC "-//W3C//DTD SVG 1.1//EN" "http://www.w3.org/Graphics/SVG/1.1/DTD/svg11.dtd"><svg t="1588522816035" class="icon" viewBox="0 0 1024 1024" version="1.1" xmlns="http://www.w3.org/2000/svg" p-id="3620" xmlns:xlink="http://www.w3.org/1999/xlink" width="50" height="50"><defs><style type="text/css"></style></defs><path d="M994.77766857 937.10937439l0-80.97186792 20.24579286 0 0 80.97186792L994.77766857 937.10937439 994.77766857 937.10937439zM994.77766857 815.65015854l0-80.97186792 20.24579286 0L1015.02346143 815.65015854 994.77766857 815.65015854 994.77766857 815.65015854zM994.77766857 613.21907476l20.24579286 0 0 80.97186793-20.24579286 0L994.77766857 613.21907476 994.77766857 613.21907476zM994.77766857 491.7598589l20.24579286 0 0 80.97186793-20.24579286 0L994.77766857 491.7598589 994.77766857 491.7598589zM994.77766857 370.29499129L994.77766857 370.29499129l20.24579286 0 0 80.97186791-20.24579286 0L994.77766857 370.29499129 994.77766857 370.29499129zM994.77766857 248.83577542l20.24579286 0 0 80.97186792-20.24579286 0L994.77766857 248.83577542 994.77766857 248.83577542zM994.77766857 127.37655956L994.77766857 127.37655956l20.24579286 0 0 80.97186792-20.24579286 0L994.77766857 127.37655956 994.77766857 127.37655956zM994.77766857 5.91734372l20.24579286 0 0 80.97186791-20.24579286 0L994.77766857 5.91734372 994.77766857 5.91734372zM893.5585938 5.91734372l80.97328189 0 0 20.24579287-80.97328189 0L893.5585938 5.91734372 893.5585938 5.91734372zM772.09937795 5.91734372l80.97328189 0 0 20.24579287-80.97328189 0L772.09937795 5.91734372 772.09937795 5.91734372zM650.6401621 5.91734372l80.97328189 0 0 20.24579287-80.97328189 0L650.6401621 5.91734372 650.6401621 5.91734372zM529.18094624 5.91734372l80.97328191 0 0 20.24579287-80.97328191 0L529.18094624 5.91734372 529.18094624 5.91734372zM407.72173039 5.91734372l80.9732819 0 0 20.24579287-80.9732819 0L407.72173039 5.91734372 407.72173039 5.91734372zM286.26251453 5.91734372l80.9732819 0 0 20.24579287L286.26251453 26.16313659 286.26251453 5.91734372 286.26251453 5.91734372zM164.7976469 5.91734372l80.9732819 0 0 20.24579287-80.9732819 0L164.7976469 5.91734372 164.7976469 5.91734372zM43.33843104 5.91734372l80.9732819 0 0 20.24579287-80.9732819 0L43.33843104 5.91734372 43.33843104 5.91734372zM43.33843104 1018.08265628L2.85249708 1018.08265628 2.85249708 977.59672234l20.24579288 0 0 20.24579284 20.24014108 0L43.33843104 1018.08265628 43.33843104 1018.08265628zM2.85249708 856.13750647l20.24579288 0 0 80.97186792L2.85249708 937.10937439 2.85249708 856.13750647 2.85249708 856.13750647zM2.85249708 734.67829062l20.24579288 0L23.09828996 815.65015854 2.85249708 815.65015854 2.85249708 734.67829062 2.85249708 734.67829062zM2.85249708 613.21907476l20.24579288 0 0 80.97186793L2.85249708 694.19094269 2.85249708 613.21907476 2.85249708 613.21907476zM2.85249708 491.7598589l20.24579288 0 0 80.97186793L2.85249708 572.73172683 2.85249708 491.7598589 2.85249708 491.7598589zM2.85249708 370.29499129l20.24579288 0 0 80.97186791L2.85249708 451.2668592 2.85249708 370.29499129 2.85249708 370.29499129zM2.85249708 248.83577542l20.24579288 0 0 80.97186792L2.85249708 329.80764334 2.85249708 248.83577542 2.85249708 248.83577542zM2.85249708 127.37655956L2.85249708 127.37655956l20.24579288 0 0 80.97186792L2.85249708 208.34842748 2.85249708 127.37655956 2.85249708 127.37655956zM2.85249708 5.91734372l20.24579288 0 0 80.97186791L2.85249708 86.889213 2.85249708 5.91734372 2.85249708 5.91734372zM164.7976469 1018.08265628l-80.97186791 0 0-20.2401411 80.97186791 0L164.7976469 1018.08265628 164.7976469 1018.08265628zM286.26251453 1018.08265628l-80.97186793 0 0-20.2401411 80.97186793 0L286.26251453 1018.08265628 286.26251453 1018.08265628zM478.57211516 309.56750224l60.73172682 0 0 172.06945955 172.06945955 0 0 60.73172683L539.30384336 542.36868998l0 172.06804694-60.73172683 0L478.57211516 542.36868998 306.5040696 542.36868998l0-60.73172681 172.06804693 0L478.57211516 309.56750224 478.57211516 309.56750224zM407.72173039 1018.08265628l-80.97186793 0 0-20.2401411 80.97186793 0L407.72173039 1018.08265628 407.72173039 1018.08265628zM529.18094624 1018.08265628L448.20907833 1018.08265628l0-20.2401411 80.97186791 0L529.18094624 1018.08265628 529.18094624 1018.08265628zM650.6401621 1018.08265628l-80.97186792 0 0-20.2401411 80.97186792 0L650.6401621 1018.08265628 650.6401621 1018.08265628zM772.09937795 1018.08265628l-80.97186791 0 0-20.2401411 80.97186791 0L772.09937795 1018.08265628 772.09937795 1018.08265628zM893.5585938 1018.08265628l-80.97186791 0 0-20.2401411 80.97186791 0L893.5585938 1018.08265628 893.5585938 1018.08265628zM994.77766857 977.59672234l20.24579286 0 0 40.48593394-80.9718679 0 0-20.2401411 60.72607504 0L994.77766857 977.59672234 994.77766857 977.59672234zM994.77766857 977.59672234" p-id="3621" fill="#85A5CC"></path></svg>